<?xml version="1.0" encoding="iso-8859-1"?>
<!-- Generator: Adobe Illustrator 16.0.0, SVG Export Plug-In . SVG Version: 6.00 Build 0)  -->
<!DOCTYPE svg PUBLIC "-//W3C//DTD SVG 1.1//EN" "http://www.w3.org/Graphics/SVG/1.1/DTD/svg11.dtd">
<svg version="1.1" id="Capa_1" xmlns="http://www.w3.org/2000/svg" xmlns:xlink="http://www.w3.org/1999/xlink" x="0px" y="0px"
	 width="32.033px" height="32.033px" viewBox="0 0 32.033 32.033" style="enable-background:new 0 0 32.033 32.033; fill:white;"
	 xml:space="preserve">
<g>
	<path d="M15.799,4.882c-0.074,0.111-0.169,0.202-0.285,0.27s-0.245,0.115-0.386,0.144c-0.141,0.029-0.286,0.04-0.434,0.036V6.08h1
		v2.563h1.079V4.469h-0.845C15.916,4.632,15.873,4.77,15.799,4.882z"/>
	<path d="M29.68,3.035c-0.485-1.56-1.888-3.146-3.285-3.029c-1.438,0.136-1.813,1.097-2.015,1.612
		c-0.116,0.299-0.15,0.354-0.194,0.366c-0.204,0.063-0.562-0.104-0.896-0.337c0.003-0.169,0.004-0.301,0.004-0.398h0.29V0.174
		h-7.567l0,0H8.449v1.075h0.29c0,0.098,0.001,0.229,0.004,0.398c-0.334,0.232-0.693,0.4-0.896,0.337
		C7.803,1.972,7.769,1.917,7.653,1.618C7.451,1.103,7.075,0.142,5.638,0.006C4.24-0.111,2.839,1.476,2.353,3.035
		C1.754,4.957,2.421,6.677,4.136,7.638l5.692,3.186c-0.635,0.034-1.141,0.555-1.141,1.197c0,0.666,0.54,1.205,1.205,1.205
		c0.65,0,1.176-0.516,1.2-1.161l0.353-0.281c0.819,0.917,1.847,1.519,2.29,1.802l-0.879-0.019v1.828h1.404
		c-0.071,1.138-0.496,5.553-2.856,6.8V23.2H10.35v1.198l-1.541,0.01v7.625h7.207l0,0h7.208v-7.625l-1.541-0.01V23.2h-1.054v-1.005
		c-2.36-1.247-2.785-5.662-2.856-6.8h1.404v-1.828l-0.879,0.019c0.442-0.283,1.471-0.885,2.29-1.802l0.353,0.281
		c0.023,0.646,0.55,1.161,1.2,1.161c0.666,0,1.205-0.539,1.205-1.205c0-0.643-0.506-1.163-1.142-1.197l5.692-3.186
		C29.611,6.677,30.278,4.957,29.68,3.035z M4.937,6.205C3.633,5.476,3.663,4.344,3.919,3.522c0.375-1.206,1.293-1.93,1.566-1.883
		c0.43,0.04,0.466,0.132,0.64,0.576c0.16,0.408,0.427,1.093,1.251,1.34c0.497,0.148,0.991,0.064,1.44-0.107
		c0.101,1.645,0.338,3.81,0.882,5.422L4.937,6.205z M16.016,10.198c-1.941-0.013-3.512-1.589-3.512-3.533s1.571-3.521,3.512-3.533
		c1.941,0.013,3.512,1.589,3.512,3.533S17.957,10.186,16.016,10.198z M27.097,6.205L22.334,8.87
		c0.545-1.612,0.781-3.777,0.883-5.422c0.448,0.172,0.942,0.256,1.439,0.107c0.825-0.247,1.092-0.932,1.251-1.34
		c0.173-0.444,0.209-0.536,0.641-0.576c0.271-0.047,1.189,0.677,1.565,1.883C28.369,4.344,28.4,5.476,27.097,6.205z"/>
</g>
<g>
</g>
<g>
</g>
<g>
</g>
<g>
</g>
<g>
</g>
<g>
</g>
<g>
</g>
<g>
</g>
<g>
</g>
<g>
</g>
<g>
</g>
<g>
</g>
<g>
</g>
<g>
</g>
<g>
</g>
</svg>
